<svg xmlns="http://www.w3.org/2000/svg" width="359.168" height="112.144" viewBox="0 0 359.168 112.144"><defs><style>.a,.b{fill:#174a84;}.b{font-size:55px;font-family:Calibri-BoldItalic, Calibri;font-style:italic;font-weight:700;}.c{font-size:47px;font-family:Calibri-Italic, Calibri;font-weight:400;}</style></defs><g transform="translate(-1625.236 -7)"><g transform="translate(1625.236 17.147)"><path class="a" d="M261.006,189.132s-28.461-3.916-46.284,15.428A58.406,58.406,0,0,0,199.666,247.5a40.1,40.1,0,0,0,18.216,30.112c17.658,11.525,39.035,2.416,39.035,2.416s6.878-2.742,10.781-8.179,4.833-15.009,4.833-15.009V240.992s.557-7.335-7.226-7.589-7.086,7.589-7.086,7.589V259.58s-.938,7.958-8,7.858-8.1-7.858-8.1-7.858l-.448-18.588s.109-7.335-7-7.589-7.687,7.589-7.687,7.589v20.447s-.149,2.245-1.5,2.8-2.954-.851-2.954-.851a23.186,23.186,0,0,1-5.389-10.085c-1.719-6.525-4.26-22.721,3.63-36.626C234.195,193.025,261.006,189.132,261.006,189.132Z" transform="translate(-199.511 -188.806)"/><path class="a" d="M304.439,236.993s7.039-.6,11.659,1.76a17.449,17.449,0,0,1,6.929,7.2s6.214-10.311,20.458-8.964c5.664.8,16.223,6.847,18.313,18.285s-.99,24.637-5.334,32.639C349.369,303.069,332.6,309.75,332.6,309.75s17.356-5.271,25.991-12.766,10.961-13.81,13.3-19.83,4.313-14.215,3.195-26.992-9.583-21.562-9.583-21.562a37.723,37.723,0,0,0-31.238-11.408C314.569,219.283,304.439,236.993,304.439,236.993Z" transform="translate(-273.164 -207.753)"/></g><text class="b" transform="translate(1748.405 59)"><tspan x="0" y="0">multipago</tspan><tspan class="c"><tspan x="0" y="43">ofertas</tspan></tspan></text></g></svg>